<?xml version="1.0" standalone="no"?>
<!DOCTYPE svg PUBLIC "-//W3C//DTD SVG 20010904//EN"
 "http://www.w3.org/TR/2001/REC-SVG-20010904/DTD/svg10.dtd">
<svg version="1.0" xmlns="http://www.w3.org/2000/svg"
 width="260.000000pt" height="260.000000pt" viewBox="0 0 260.000000 260.000000"
 preserveAspectRatio="xMidYMid meet">
<metadata>
Created by potrace 1.14, written by Peter Selinger 2001-2017
</metadata>
<g transform="translate(0.000000,260.000000) scale(0.100000,-0.100000)"
fill="#000000" stroke="none">
<path d="M755 1766 c-22 -7 -54 -20 -71 -29 -36 -19 -114 -103 -114 -123 0 -8
-4 -14 -10 -14 -6 0 -10 33 -10 80 l0 80 -145 0 -145 0 0 -495 0 -495 144 0
144 0 4 253 c3 232 5 256 24 298 36 78 128 129 231 129 l43 0 0 165 0 165 -27
-1 c-16 0 -46 -6 -68 -13z"/>
<path d="M900 1753 c0 -5 71 -228 158 -498 l157 -490 141 -3 140 -3 64 213
c35 117 70 235 78 261 8 27 17 46 20 42 4 -3 40 -119 82 -258 l76 -252 140 -3
140 -3 157 493 c87 271 157 496 157 501 0 4 -71 7 -158 7 l-158 0 -69 -260
c-38 -143 -72 -256 -75 -252 -5 5 -94 305 -142 480 l-9 32 -142 0 -143 0 -73
-255 c-41 -140 -77 -255 -80 -255 -4 0 -28 82 -55 183 -27 100 -58 215 -69
255 l-19 72 -159 0 c-88 0 -159 -3 -159 -7z"/>
</g>
</svg>
