{
  "accessors": [
    {
      "bufferView": 2,
      "componentType": 5126,
      "count": 1056,
      "max": [
        4.0684709548950195,
        4.216872215270996,
        2.940653085708618
      ],
      "min": [
        -4.131529808044434,
        -4.116575241088867,
        0.011376619338989258
      ],
      "type": "VEC3"
    },
    {
      "bufferView": 2,
      "byteOffset": 12672,
      "componentType": 5126,
      "count": 1056,
      "max": [
        1.0,
        1.0,
        1.0
      ],
      "min": [
        -1.0,
        -1.0,
        -1.0
      ],
      "type": "VEC3"
    },
    {
      "bufferView": 3,
      "componentType": 5126,
      "count": 1056,
      "max": [
        1.0,
        1.0,
        1.0,
        1.0
      ],
      "min": [
        -1.0,
        -4.76837158203125e-07,
        -1.0,
        1.0
      ],
      "type": "VEC4"
    },
    {
      "bufferView": 1,
      "componentType": 5126,
      "count": 1056,
      "max": [
        0.9894609451293945,
        0.9990983009338379
      ],
      "min": [
        0.0009019374847412109,
        0.0009019374847412109
      ],
      "type": "VEC2"
    },
    {
      "bufferView": 1,
      "byteOffset": 8448,
      "componentType": 5126,
      "count": 1056,
      "max": [
        0.9894609451293945,
        0.9990983009338379
      ],
      "min": [
        0.0009019374847412109,
        0.0009019374847412109
      ],
      "type": "VEC2"
    },
    {
      "bufferView": 1,
      "byteOffset": 16896,
      "componentType": 5126,
      "count": 1056,
      "max": [
        0.9894609451293945,
        0.9990983009338379
      ],
      "min": [
        0.0009019374847412109,
        0.0009019374847412109
      ],
      "type": "VEC2"
    },
    {
      "bufferView": 0,
      "componentType": 5125,
      "count": 1584,
      "type": "SCALAR"
    },
    {
      "bufferView": 2,
      "byteOffset": 25344,
      "componentType": 5126,
      "count": 49280,
      "max": [
        4.07813835144043,
        4.07832670211792,
        11.013357162475586
      ],
      "min": [
        -4.077495574951172,
        -4.077839374542236,
        2.9505913257598877
      ],
      "type": "VEC3"
    },
    {
      "bufferView": 2,
      "byteOffset": 616704,
      "componentType": 5126,
      "count": 49280,
      "max": [
        1.0,
        0.9999996423721313,
        1.0
      ],
      "min": [
        -0.9999998807907104,
        -0.9999997615814209,
        -1.0
      ],
      "type": "VEC3"
    },
    {
      "bufferView": 3,
      "byteOffset": 16896,
      "componentType": 5126,
      "count": 49280,
      "max": [
        1.0,
        1.0,
        0.7157358527183533,
        1.0
      ],
      "min": [
        -1.0,
        -1.0,
        -0.7092078328132629,
        1.0
      ],
      "type": "VEC4"
    },
    {
      "bufferView": 1,
      "byteOffset": 25344,
      "componentType": 5126,
      "count": 49280,
      "max": [
        0.9978766441345215,
        0.6670408248901367
      ],
      "min": [
        0.002127736806869507,
        0.0021233707666397095
      ],
      "type": "VEC2"
    },
    {
      "bufferView": 0,
      "byteOffset": 6336,
      "componentType": 5125,
      "count": 245760,
      "type": "SCALAR"
    },
    {
      "bufferView": 2,
      "byteOffset": 1208064,
      "componentType": 5126,
      "count": 1995,
      "max": [
        4.105454444885254,
        4.170134544372559,
        11.012590408325195
      ],
      "min": [
        -4.151529788970947,
        -4.105456829071045,
        2.423433780670166
      ],
      "type": "VEC3"
    },
    {
      "bufferView": 2,
      "byteOffset": 1232004,
      "componentType": 5126,
      "count": 1995,
      "max": [
        1.0,
        0.9999977946281433,
        0.9998307228088379
      ],
      "min": [
        -1.0,
        -0.9999983310699463,
        -0.24822811782360077
      ],
      "type": "VEC3"
    },
    {
      "bufferView": 3,
      "byteOffset": 805376,
      "componentType": 5126,
      "count": 1995,
      "max": [
        1.0,
        1.0,
        0.9046733379364014,
        1.0
      ],
      "min": [
        -1.0,
        -1.0,
        -0.886629581451416,
        1.0
      ],
      "type": "VEC4"
    },
    {
      "bufferView": 1,
      "byteOffset": 419584,
      "componentType": 5126,
      "count": 1995,
      "max": [
        1.0,
        0.9981284737586975
      ],
      "min": [
        9.238719940185547e-07,
        0.014754414558410645
      ],
      "type": "VEC2"
    },
    {
      "bufferView": 1,
      "byteOffset": 435544,
      "componentType": 5126,
      "count": 1995,
      "max": [
        1.0,
        0.9981284737586975
      ],
      "min": [
        9.238719940185547e-07,
        0.014754414558410645
      ],
      "type": "VEC2"
    },
    {
      "bufferView": 1,
      "byteOffset": 451504,
      "componentType": 5126,
      "count": 1995,
      "max": [
        1.0,
        0.9981284737586975
      ],
      "min": [
        9.238719940185547e-07,
        0.014754414558410645
      ],
      "type": "VEC2"
    },
    {
      "bufferView": 0,
      "byteOffset": 989376,
      "componentType": 5125,
      "count": 11232,
      "type": "SCALAR"
    },
    {
      "bufferView": 2,
      "byteOffset": 1255944,
      "componentType": 5126,
      "count": 1540,
      "max": [
        1.5310027599334717,
        2.548508405685425,
        0.5416922569274902
      ],
      "min": [
        -0.5045806765556335,
        -1.526179313659668,
        -1.4788051843643188
      ],
      "type": "VEC3"
    },
    {
      "bufferView": 2,
      "byteOffset": 1274424,
      "componentType": 5126,
      "count": 1540,
      "max": [
        0.999971330165863,
        0.9999919533729553,
        0.9999868869781494
      ],
      "min": [
        -0.9999904632568359,
        -0.9999769926071167,
        -0.9999998211860657
      ],
      "type": "VEC3"
    },
    {
      "bufferView": 3,
      "byteOffset": 837296,
      "componentType": 5126,
      "count": 1540,
      "max": [
        0.9999997019767761,
        0.9999998807907104,
        0.6947495937347412,
        1.0
      ],
      "min": [
        -0.9999997615814209,
        -0.7120975255966187,
        -0.7059526443481445,
        1.0
      ],
      "type": "VEC4"
    },
    {
      "bufferView": 1,
      "byteOffset": 467464,
      "componentType": 5126,
      "count": 1540,
      "max": [
        0.9978766441345215,
        0.6670408248901367
      ],
      "min": [
        0.002127736806869507,
        0.0021233707666397095
      ],
      "type": "VEC2"
    },
    {
      "bufferView": 0,
      "byteOffset": 1034304,
      "componentType": 5125,
      "count": 7680,
      "type": "SCALAR"
    },
    {
      "bufferView": 2,
      "byteOffset": 1292904,
      "componentType": 5126,
      "count": 770,
      "max": [
        0.9519590735435486,
        1.0746734142303467,
        2.1706793308258057
      ],
      "min": [
        -1.0770000219345093,
        -0.9557143449783325,
        0.13608282804489136
      ],
      "type": "VEC3"
    },
    {
      "bufferView": 2,
      "byteOffset": 1302144,
      "componentType": 5126,
      "count": 770,
      "max": [
        0.9999765753746033,
        0.9999997615814209,
        0.9999842643737793
      ],
      "min": [
        -0.9999952912330627,
        -0.9999748468399048,
        -0.9999539256095886
      ],
      "type": "VEC3"
    },
    {
      "bufferView": 3,
      "byteOffset": 861936,
      "componentType": 5126,
      "count": 770,
      "max": [
        0.9999998211860657,
        0.6933094263076782,
        1.0,
        1.0
      ],
      "min": [
        -0.7074674963951111,
        -0.6961767673492432,
        -0.9999998807907104,
        1.0
      ],
      "type": "VEC4"
    },
    {
      "bufferView": 1,
      "byteOffset": 479784,
      "componentType": 5126,
      "count": 770,
      "max": [
        0.9978766441345215,
        0.6670408248901367
      ],
      "min": [
        0.002127736806869507,
        0.0021233707666397095
      ],
      "type": "VEC2"
    },
    {
      "bufferView": 0,
      "byteOffset": 1065024,
      "componentType": 5125,
      "count": 3840,
      "type": "SCALAR"
    }
  ],
  "asset": {
    "extras": {
      "author": "Duznot (https://sketchfab.com/duz_vr)",
      "license": "CC-BY-4.0 (http://creativecommons.org/licenses/by/4.0/)",
      "source": "https://sketchfab.com/3d-models/melon-pallet-b90368f059744627a612fc06d576fa43",
      "title": "Melon Pallet"
    },
    "generator": "Sketchfab-13.52.1",
    "version": "2.0"
  },
  "bufferViews": [
    {
      "buffer": 0,
      "byteLength": 1080384,
      "name": "floatBufferViews",
      "target": 34963
    },
    {
      "buffer": 0,
      "byteLength": 485944,
      "byteOffset": 1080384,
      "byteStride": 8,
      "name": "floatBufferViews",
      "target": 34962
    },
    {
      "buffer": 0,
      "byteLength": 1311384,
      "byteOffset": 1566328,
      "byteStride": 12,
      "name": "floatBufferViews",
      "target": 34962
    },
    {
      "buffer": 0,
      "byteLength": 874256,
      "byteOffset": 2877712,
      "byteStride": 16,
      "name": "floatBufferViews",
      "target": 34962
    }
  ],
  "buffers": [
    {
      "byteLength": 3751968,
      "uri": "scene.bin"
    }
  ],
  "extensionsUsed": [
    "KHR_materials_transmission"
  ],
  "images": [
    {
      "uri": "textures/Wood_Pallet_baseColor.jpeg"
    },
    {
      "uri": "textures/Wood_Pallet_metallicRoughness.png"
    },
    {
      "uri": "textures/Wood_Pallet_normal.png"
    },
    {
      "uri": "textures/Watermelon_baseColor.jpeg"
    },
    {
      "uri": "textures/Watermelon_metallicRoughness.png"
    },
    {
      "uri": "textures/Watermelon_normal.png"
    },
    {
      "uri": "textures/Clingwrap_baseColor.png"
    },
    {
      "uri": "textures/Clingwrap_metallicRoughness.png"
    },
    {
      "uri": "textures/Clingwrap_normal.png"
    },
    {
      "uri": "textures/Clingwrap_transmission.png"
    }
  ],
  "materials": [
    {
      "doubleSided": true,
      "name": "Wood_Pallet",
      "normalTexture": {
        "index": 2
      },
      "occlusionTexture": {
        "index": 1
      },
      "pbrMetallicRoughness": {
        "baseColorTexture": {
          "index": 0
        },
        "metallicRoughnessTexture": {
          "index": 1
        }
      }
    },
    {
      "doubleSided": true,
      "name": "Watermelon",
      "normalTexture": {
        "index": 5
      },
      "occlusionTexture": {
        "index": 4
      },
      "pbrMetallicRoughness": {
        "baseColorTexture": {
          "index": 3
        },
        "metallicRoughnessTexture": {
          "index": 4
        }
      }
    },
    {
      "alphaMode": "BLEND",
      "doubleSided": true,
      "extensions": {
        "KHR_materials_transmission": {
          "transmissionFactor": 1.0,
          "transmissionTexture": {
            "index": 9
          }
        }
      },
      "name": "Clingwrap",
      "normalTexture": {
        "index": 8
      },
      "occlusionTexture": {
        "index": 7
      },
      "pbrMetallicRoughness": {
        "baseColorTexture": {
          "index": 6
        },
        "metallicRoughnessTexture": {
          "index": 7
        }
      }
    }
  ],
  "meshes": [
    {
      "name": "Melons_Wood Pallet_0",
      "primitives": [
        {
          "attributes": {
            "NORMAL": 1,
            "POSITION": 0,
            "TANGENT": 2,
            "TEXCOORD_0": 3,
            "TEXCOORD_1": 4,
            "TEXCOORD_2": 5
          },
          "indices": 6,
          "material": 0,
          "mode": 4
        }
      ]
    },
    {
      "name": "Melons_Watermelon_0",
      "primitives": [
        {
          "attributes": {
            "NORMAL": 8,
            "POSITION": 7,
            "TANGENT": 9,
            "TEXCOORD_0": 10
          },
          "indices": 11,
          "material": 1,
          "mode": 4
        }
      ]
    },
    {
      "name": "Wrap_Clingwrap_0",
      "primitives": [
        {
          "attributes": {
            "NORMAL": 13,
            "POSITION": 12,
            "TANGENT": 14,
            "TEXCOORD_0": 15,
            "TEXCOORD_1": 16,
            "TEXCOORD_2": 17
          },
          "indices": 18,
          "material": 2,
          "mode": 4
        }
      ]
    },
    {
      "name": "Melons.001_Watermelon_0",
      "primitives": [
        {
          "attributes": {
            "NORMAL": 20,
            "POSITION": 19,
            "TANGENT": 21,
            "TEXCOORD_0": 22
          },
          "indices": 23,
          "material": 1,
          "mode": 4
        }
      ]
    },
    {
      "name": "Melons.002_Watermelon_0",
      "primitives": [
        {
          "attributes": {
            "NORMAL": 25,
            "POSITION": 24,
            "TANGENT": 26,
            "TEXCOORD_0": 27
          },
          "indices": 28,
          "material": 1,
          "mode": 4
        }
      ]
    }
  ],
  "nodes": [
    {
      "children": [
        1
      ],
      "matrix": [
        1.0,
        0.0,
        0.0,
        0.0,
        0.0,
        2.220446049250313e-16,
        -1.0,
        0.0,
        0.0,
        1.0,
        2.220446049250313e-16,
        0.0,
        0.0,
        0.0,
        0.0,
        1.0
      ],
      "name": "Sketchfab_model"
    },
    {
      "children": [
        2
      ],
      "matrix": [
        0.009999999776482582,
        0.0,
        0.0,
        0.0,
        0.0,
        0.0,
        0.009999999776482582,
        0.0,
        0.0,
        -0.009999999776482582,
        0.0,
        0.0,
        0.0,
        0.0,
        0.0,
        1.0
      ],
      "name": "cube melons.fbx"
    },
    {
      "children": [
        3,
        6,
        8,
        10
      ],
      "name": "RootNode"
    },
    {
      "children": [
        4,
        5
      ],
      "matrix": [
        100.0,
        0.0,
        0.0,
        0.0,
        0.0,
        -1.629206793918314e-05,
        -99.99999999999868,
        0.0,
        0.0,
        99.99999999999868,
        -1.629206793918314e-05,
        0.0,
        0.0,
        0.0,
        0.0,
        1.0
      ],
      "name": "Melons"
    },
    {
      "mesh": 0,
      "name": "Melons_Wood Pallet_0"
    },
    {
      "mesh": 1,
      "name": "Melons_Watermelon_0"
    },
    {
      "children": [
        7
      ],
      "matrix": [
        100.0,
        0.0,
        0.0,
        0.0,
        0.0,
        -1.629206793918314e-05,
        -99.99999999999868,
        0.0,
        0.0,
        99.99999999999868,
        -1.629206793918314e-05,
        0.0,
        0.0,
        0.0,
        0.0,
        1.0
      ],
      "name": "Wrap"
    },
    {
      "mesh": 2,
      "name": "Wrap_Clingwrap_0"
    },
    {
      "children": [
        9
      ],
      "matrix": [
        7.549789959870878e-06,
        0.0,
        99.9999999999997,
        0.0,
        99.99999999999838,
        -1.6292067961387602e-05,
        -7.549789954319763e-06,
        0.0,
        1.6292067972489832e-05,
        99.99999999999866,
        -1.2212453270876722e-12,
        0.0,
        -251.0127716064453,
        148.40838623046875,
        -578.4518432617188,
        1.0
      ],
      "name": "Melons.001"
    },
    {
      "mesh": 3,
      "name": "Melons.001_Watermelon_0"
    },
    {
      "children": [
        11
      ],
      "matrix": [
        100.0,
        0.0,
        0.0,
        0.0,
        0.0,
        -1.629206793918314e-05,
        -99.99999999999868,
        0.0,
        0.0,
        99.99999999999868,
        -1.629206793918314e-05,
        0.0,
        509.4453430175781,
        -13.353891372680664,
        326.1000671386719,
        1.0
      ],
      "name": "Melons.002"
    },
    {
      "mesh": 4,
      "name": "Melons.002_Watermelon_0"
    }
  ],
  "samplers": [
    {
      "magFilter": 9729,
      "minFilter": 9987,
      "wrapS": 10497,
      "wrapT": 10497
    }
  ],
  "scene": 0,
  "scenes": [
    {
      "name": "Sketchfab_Scene",
      "nodes": [
        0
      ]
    }
  ],
  "textures": [
    {
      "sampler": 0,
      "source": 0
    },
    {
      "sampler": 0,
      "source": 1
    },
    {
      "sampler": 0,
      "source": 2
    },
    {
      "sampler": 0,
      "source": 3
    },
    {
      "sampler": 0,
      "source": 4
    },
    {
      "sampler": 0,
      "source": 5
    },
    {
      "sampler": 0,
      "source": 6
    },
    {
      "sampler": 0,
      "source": 7
    },
    {
      "sampler": 0,
      "source": 8
    },
    {
      "sampler": 0,
      "source": 9
    }
  ]
}
